<svg xmlns="http://www.w3.org/2000/svg" xmlns:xlink="http://www.w3.org/1999/xlink" width="790" height="450.78"><rect width="790" height="450.78" rx="5" ry="5" class="a"/><svg y="0%" x="0%"><circle cx="20" cy="20" r="6" fill="#ff5f58"/><circle cx="40" cy="20" r="6" fill="#ffbd2e"/><circle cx="60" cy="20" r="6" fill="#18c132"/></svg><svg height="390.78" viewBox="0 0 75 39.078" width="750" x="15" xmlns="http://www.w3.org/2000/svg" xmlns:xlink="http://www.w3.org/1999/xlink" y="50"><style>@keyframes i{0%{transform:translateX(-75px)}1.52%{transform:translateX(-150px)}3.03%{transform:translateX(-225px)}3.19%{transform:translateX(-300px)}3.34%{transform:translateX(-375px)}3.49%{transform:translateX(-450px)}3.64%{transform:translateX(-525px)}3.79%{transform:translateX(-600px)}3.95%{transform:translateX(-675px)}4.1%{transform:translateX(-750px)}4.25%{transform:translateX(-825px)}4.4%{transform:translateX(-900px)}4.55%{transform:translateX(-975px)}4.7%{transform:translateX(-1050px)}4.86%{transform:translateX(-1125px)}5.01%{transform:translateX(-1200px)}5.16%{transform:translateX(-1275px)}5.31%{transform:translateX(-1350px)}5.46%{transform:translateX(-1425px)}5.61%{transform:translateX(-1500px)}5.77%{transform:translateX(-1575px)}5.92%{transform:translateX(-1650px)}6.07%{transform:translateX(-1725px)}6.22%{transform:translateX(-1800px)}6.37%{transform:translateX(-1875px)}6.53%{transform:translateX(-1950px)}6.68%{transform:translateX(-2025px)}6.83%{transform:translateX(-2100px)}6.98%{transform:translateX(-2175px)}7.13%{transform:translateX(-2250px)}7.28%{transform:translateX(-2325px)}7.44%{transform:translateX(-2400px)}7.59%{transform:translateX(-2475px)}7.74%{transform:translateX(-2550px)}8.35%{transform:translateX(-2625px)}8.41%{transform:translateX(-2700px)}8.47%{transform:translateX(-2775px)}8.53%{transform:translateX(-2850px)}8.59%{transform:translateX(-2925px)}8.65%{transform:translateX(-3000px)}8.71%{transform:translateX(-3075px)}8.77%{transform:translateX(-3150px)}8.83%{transform:translateX(-3225px)}8.89%{transform:translateX(-3300px)}8.95%{transform:translateX(-3375px)}to{transform:translateX(-3450px)}}.a{fill:#282d35}.f{fill:#b9c0cb;white-space:pre}</style><g font-family="Monaco,Consolas,Menlo,'Bitstream Vera Sans Mono','Powerline Symbols',monospace" font-size="1.67"><defs><symbol id="1"><text y="1.67" class="f">derrek@bl4ckn01r:~$</text></symbol><symbol id="2"><text y="1.67" class="f">derrek@bl4ckn01r:~$</text><text x="20.04" y="1.67" class="f">systemctl</text></symbol><symbol id="3"><text y="1.67" class="f">derrek@bl4ckn01r:~$</text><text x="20.04" y="1.67" class="f">systemctl</text><text x="30.06" y="1.67" class="f">status</text></symbol><symbol id="4"><text y="1.67" class="f">derrek@bl4ckn01r:~$</text><text x="20.04" y="1.67" class="f">systemctl</text><text x="30.06" y="1.67" class="f">status</text><text x="37.074" y="1.67" class="f">active_threads</text></symbol><symbol id="5"><text y="1.67" class="f">●</text><text x="2.004" y="1.67" class="f">active_threads.service</text><text x="25.05" y="1.67" class="f">-</text><text x="27.054" y="1.67" class="f">Current</text><text x="35.07" y="1.67" class="f">Engineering</text><text x="47.094" y="1.67" class="f">Tasks</text><text x="53.106" y="1.67" class="f">&amp;</text><text x="55.11" y="1.67" class="f">Processes</text></symbol><symbol id="6"><text x="5.01" y="1.67" class="f">Loaded:</text><text x="13.026" y="1.67" class="f">loaded</text><text x="20.04" y="1.67" class="f">(/usr/lib/systemd/system/derrek.service;</text><text x="61.122" y="1.67" class="f">enabled)</text></symbol><symbol id="7"><text x="5.01" y="1.67" class="f">Active:</text><text x="13.026" y="1.67" class="f">active</text><text x="20.04" y="1.67" class="f">(running)</text><text x="30.06" y="1.67" class="f">since</text><text x="36.072" y="1.67" class="f">Fri</text><text x="40.08" y="1.67" class="f">Aug</text><text x="44.088" y="1.67" class="f">14</text><text x="47.094" y="1.67" class="f">12:04:26</text><text x="56.112" y="1.67" class="f">EAT</text><text x="60.12" y="1.67" class="f">2026</text></symbol><symbol id="8"><text x="5.01" y="1.67" class="f">Processes:</text></symbol><symbol id="9"><text x="5.01" y="1.67" class="f">├─</text><text x="8.016" y="1.67" class="f">[SHIPPED]</text><text x="18.036" y="1.67" class="f">Attend-ED:</text><text x="29.058" y="1.67" class="f">Secure</text><text x="36.072" y="1.67" class="f">mobile</text><text x="43.086" y="1.67" class="f">attendance</text><text x="54.108" y="1.67" class="f">utilizing</text><text x="64.128" y="1.67" class="f">geo-fencing</text></symbol><symbol id="10"><text x="1.002" y="1.67" class="f">mechanics.</text></symbol><symbol id="11"><text x="5.01" y="1.67" class="f">├─</text><text x="8.016" y="1.67" class="f">[SHIPPED]</text><text x="18.036" y="1.67" class="f">SMPS</text><text x="23.046" y="1.67" class="f">Exam</text><text x="28.056" y="1.67" class="f">System:</text><text x="36.072" y="1.67" class="f">Concurrent</text><text x="47.094" y="1.67" class="f">high-volume</text><text x="59.118" y="1.67" class="f">academic</text><text x="68.136" y="1.67" class="f">booking</text></symbol><symbol id="12"><text x="1.002" y="1.67" class="f">engine.</text></symbol><symbol id="13"><text x="5.01" y="1.67" class="f">├─</text><text x="8.016" y="1.67" class="f">[LEARNING]</text><text x="19.038" y="1.67" class="f">.NET</text><text x="24.048" y="1.67" class="f">Aspire:</text><text x="32.064" y="1.67" class="f">Modular</text><text x="40.08" y="1.67" class="f">monolith</text><text x="49.098" y="1.67" class="f">to</text><text x="52.104" y="1.67" class="f">microservice</text><text x="65.13" y="1.67" class="f">orchestrat</text></symbol><symbol id="14"><text y="1.67" class="f">ion.</text></symbol><symbol id="15"><text x="5.01" y="1.67" class="f">├─</text><text x="8.016" y="1.67" class="f">[WRITING]</text><text x="18.036" y="1.67" class="f">Derrek&apos;s</text><text x="27.054" y="1.67" class="f">Lens:</text><text x="33.066" y="1.67" class="f">Documenting</text><text x="45.09" y="1.67" class="f">system</text><text x="52.104" y="1.67" class="f">design</text><text x="59.118" y="1.67" class="f">and</text><text x="63.126" y="1.67" class="f">backend</text><text x="71.142" y="1.67" class="f">arch</text></symbol><symbol id="16"><text y="1.67" class="f">itecture.</text></symbol><symbol id="17"><text x="5.01" y="1.67" class="f">└─</text><text x="8.016" y="1.67" class="f">[OFFLINE]</text><text x="18.036" y="1.67" class="f">Physical</text><text x="27.054" y="1.67" class="f">infrastructure</text><text x="42.084" y="1.67" class="f">maintenance</text><text x="54.108" y="1.67" class="f">(Strength</text><text x="64.128" y="1.67" class="f">conditionin</text></symbol><symbol id="18"><text y="1.67" class="f">g</text><text x="2.004" y="1.67" class="f">&amp;</text><text x="4.008" y="1.67" class="f">HVS</text><text x="8.016" y="1.67" class="f">cycling).</text></symbol><symbol id="a"><path fill="transparent" d="M0 0h75v18H0z"/></symbol><symbol id="b"><path fill="#6f7683" d="M0 0h1.102v2.171H0z"/></symbol></defs><path class="a" d="M0 0h75v39.078H0z"/><g style="animation-duration:32.95s;animation-iteration-count:infinite;animation-name:i;animation-timing-function:steps(1,end)"><svg width="3525"><svg><use xlink:href="#a"/><use xlink:href="#b" x="-.004"/></svg><svg x="75"><use xlink:href="#a"/><use xlink:href="#b" x="-.004"/></svg><svg x="150"><use xlink:href="#a"/><use xlink:href="#b" x="19.996"/><use xlink:href="#1"/></svg><svg x="225"><use xlink:href="#a"/><use xlink:href="#b" x="20.996"/><text y="1.67" class="f">derrek@bl4ckn01r:~$</text><text x="20.04" y="1.67" class="f">s</text></svg><svg x="300"><use xlink:href="#a"/><use xlink:href="#b" x="21.996"/><text y="1.67" class="f">derrek@bl4ckn01r:~$</text><text x="20.04" y="1.67" class="f">sy</text></svg><svg x="375"><use xlink:href="#a"/><use xlink:href="#b" x="22.996"/><text y="1.67" class="f">derrek@bl4ckn01r:~$</text><text x="20.04" y="1.67" class="f">sys</text></svg><svg x="450"><use xlink:href="#a"/><use xlink:href="#b" x="23.996"/><text y="1.67" class="f">derrek@bl4ckn01r:~$</text><text x="20.04" y="1.67" class="f">syst</text></svg><svg x="525"><use xlink:href="#a"/><use xlink:href="#b" x="24.996"/><text y="1.67" class="f">derrek@bl4ckn01r:~$</text><text x="20.04" y="1.67" class="f">syste</text></svg><svg x="600"><use xlink:href="#a"/><use xlink:href="#b" x="25.996"/><text y="1.67" class="f">derrek@bl4ckn01r:~$</text><text x="20.04" y="1.67" class="f">system</text></svg><svg x="675"><use xlink:href="#a"/><use xlink:href="#b" x="26.996"/><text y="1.67" class="f">derrek@bl4ckn01r:~$</text><text x="20.04" y="1.67" class="f">systemc</text></svg><svg x="750"><use xlink:href="#a"/><use xlink:href="#b" x="27.996"/><text y="1.67" class="f">derrek@bl4ckn01r:~$</text><text x="20.04" y="1.67" class="f">systemct</text></svg><svg x="825"><use xlink:href="#a"/><use xlink:href="#b" x="28.996"/><use xlink:href="#2"/></svg><svg x="900"><use xlink:href="#a"/><use xlink:href="#b" x="29.996"/><use xlink:href="#2"/></svg><svg x="975"><use xlink:href="#a"/><use xlink:href="#b" x="30.996"/><text y="1.67" class="f">derrek@bl4ckn01r:~$</text><text x="20.04" y="1.67" class="f">systemctl</text><text x="30.06" y="1.67" class="f">s</text></svg><svg x="1050"><use xlink:href="#a"/><use xlink:href="#b" x="31.996"/><text y="1.67" class="f">derrek@bl4ckn01r:~$</text><text x="20.04" y="1.67" class="f">systemctl</text><text x="30.06" y="1.67" class="f">st</text></svg><svg x="1125"><use xlink:href="#a"/><use xlink:href="#b" x="32.996"/><text y="1.67" class="f">derrek@bl4ckn01r:~$</text><text x="20.04" y="1.67" class="f">systemctl</text><text x="30.06" y="1.67" class="f">sta</text></svg><svg x="1200"><use xlink:href="#a"/><use xlink:href="#b" x="33.996"/><text y="1.67" class="f">derrek@bl4ckn01r:~$</text><text x="20.04" y="1.67" class="f">systemctl</text><text x="30.06" y="1.67" class="f">stat</text></svg><svg x="1275"><use xlink:href="#a"/><use xlink:href="#b" x="34.996"/><text y="1.67" class="f">derrek@bl4ckn01r:~$</text><text x="20.04" y="1.67" class="f">systemctl</text><text x="30.06" y="1.67" class="f">statu</text></svg><svg x="1350"><use xlink:href="#a"/><use xlink:href="#b" x="35.996"/><use xlink:href="#3"/></svg><svg x="1425"><use xlink:href="#a"/><use xlink:href="#b" x="36.996"/><use xlink:href="#3"/></svg><svg x="1500"><use xlink:href="#a"/><use xlink:href="#b" x="37.996"/><text y="1.67" class="f">derrek@bl4ckn01r:~$</text><text x="20.04" y="1.67" class="f">systemctl</text><text x="30.06" y="1.67" class="f">status</text><text x="37.074" y="1.67" class="f">a</text></svg><svg x="1575"><use xlink:href="#a"/><use xlink:href="#b" x="38.996"/><text y="1.67" class="f">derrek@bl4ckn01r:~$</text><text x="20.04" y="1.67" class="f">systemctl</text><text x="30.06" y="1.67" class="f">status</text><text x="37.074" y="1.67" class="f">ac</text></svg><svg x="1650"><use xlink:href="#a"/><use xlink:href="#b" x="39.996"/><text y="1.67" class="f">derrek@bl4ckn01r:~$</text><text x="20.04" y="1.67" class="f">systemctl</text><text x="30.06" y="1.67" class="f">status</text><text x="37.074" y="1.67" class="f">act</text></svg><svg x="1725"><use xlink:href="#a"/><use xlink:href="#b" x="40.996"/><text y="1.67" class="f">derrek@bl4ckn01r:~$</text><text x="20.04" y="1.67" class="f">systemctl</text><text x="30.06" y="1.67" class="f">status</text><text x="37.074" y="1.67" class="f">acti</text></svg><svg x="1800"><use xlink:href="#a"/><use xlink:href="#b" x="41.996"/><text y="1.67" class="f">derrek@bl4ckn01r:~$</text><text x="20.04" y="1.67" class="f">systemctl</text><text x="30.06" y="1.67" class="f">status</text><text x="37.074" y="1.67" class="f">activ</text></svg><svg x="1875"><use xlink:href="#a"/><use xlink:href="#b" x="42.996"/><text y="1.67" class="f">derrek@bl4ckn01r:~$</text><text x="20.04" y="1.67" class="f">systemctl</text><text x="30.06" y="1.67" class="f">status</text><text x="37.074" y="1.67" class="f">active</text></svg><svg x="1950"><use xlink:href="#a"/><use xlink:href="#b" x="43.996"/><text y="1.67" class="f">derrek@bl4ckn01r:~$</text><text x="20.04" y="1.67" class="f">systemctl</text><text x="30.06" y="1.67" class="f">status</text><text x="37.074" y="1.67" class="f">active_</text></svg><svg x="2025"><use xlink:href="#a"/><use xlink:href="#b" x="44.996"/><text y="1.67" class="f">derrek@bl4ckn01r:~$</text><text x="20.04" y="1.67" class="f">systemctl</text><text x="30.06" y="1.67" class="f">status</text><text x="37.074" y="1.67" class="f">active_t</text></svg><svg x="2100"><use xlink:href="#a"/><use xlink:href="#b" x="45.996"/><text y="1.67" class="f">derrek@bl4ckn01r:~$</text><text x="20.04" y="1.67" class="f">systemctl</text><text x="30.06" y="1.67" class="f">status</text><text x="37.074" y="1.67" class="f">active_th</text></svg><svg x="2175"><use xlink:href="#a"/><use xlink:href="#b" x="46.996"/><text y="1.67" class="f">derrek@bl4ckn01r:~$</text><text x="20.04" y="1.67" class="f">systemctl</text><text x="30.06" y="1.67" class="f">status</text><text x="37.074" y="1.67" class="f">active_thr</text></svg><svg x="2250"><use xlink:href="#a"/><use xlink:href="#b" x="47.996"/><text y="1.67" class="f">derrek@bl4ckn01r:~$</text><text x="20.04" y="1.67" class="f">systemctl</text><text x="30.06" y="1.67" class="f">status</text><text x="37.074" y="1.67" class="f">active_thre</text></svg><svg x="2325"><use xlink:href="#a"/><use xlink:href="#b" x="48.996"/><text y="1.67" class="f">derrek@bl4ckn01r:~$</text><text x="20.04" y="1.67" class="f">systemctl</text><text x="30.06" y="1.67" class="f">status</text><text x="37.074" y="1.67" class="f">active_threa</text></svg><svg x="2400"><use xlink:href="#a"/><use xlink:href="#b" x="49.996"/><text y="1.67" class="f">derrek@bl4ckn01r:~$</text><text x="20.04" y="1.67" class="f">systemctl</text><text x="30.06" y="1.67" class="f">status</text><text x="37.074" y="1.67" class="f">active_thread</text></svg><svg x="2475"><use xlink:href="#a"/><use xlink:href="#b" x="50.996"/><use xlink:href="#4"/></svg><svg x="2550"><use xlink:href="#a"/><use xlink:href="#b" x="-.004" y="2.146"/><use xlink:href="#4"/></svg><svg x="2625"><use xlink:href="#a"/><use xlink:href="#b" x="-.004" y="4.317"/><use xlink:href="#4"/><use xlink:href="#5" y="2.171"/></svg><svg x="2700"><use xlink:href="#a"/><use xlink:href="#b" x="-.004" y="6.488"/><use xlink:href="#4"/><use xlink:href="#5" y="2.171"/><use xlink:href="#6" y="4.342"/></svg><svg x="2775"><use xlink:href="#a"/><use xlink:href="#b" x="-.004" y="8.659"/><use xlink:href="#4"/><use xlink:href="#5" y="2.171"/><use xlink:href="#6" y="4.342"/><use xlink:href="#7" y="6.513"/></svg><svg x="2850"><use xlink:href="#a"/><use xlink:href="#b" x="-.004" y="10.83"/><use xlink:href="#4"/><use xlink:href="#5" y="2.171"/><use xlink:href="#6" y="4.342"/><use xlink:href="#7" y="6.513"/></svg><svg x="2925"><use xlink:href="#a"/><use xlink:href="#b" x="-.004" y="13.001"/><use xlink:href="#4"/><use xlink:href="#5" y="2.171"/><use xlink:href="#6" y="4.342"/><use xlink:href="#7" y="6.513"/><use xlink:href="#8" y="10.855"/></svg><svg x="3000"><use xlink:href="#a"/><use xlink:href="#b" x="-.004" y="17.343"/><use xlink:href="#4"/><use xlink:href="#5" y="2.171"/><use xlink:href="#6" y="4.342"/><use xlink:href="#7" y="6.513"/><use xlink:href="#8" y="10.855"/><use xlink:href="#9" y="13.026"/><use xlink:href="#10" y="15.197"/></svg><svg x="3075"><use xlink:href="#a"/><use xlink:href="#b" x="-.004" y="21.685"/><use xlink:href="#4"/><use xlink:href="#5" y="2.171"/><use xlink:href="#6" y="4.342"/><use xlink:href="#7" y="6.513"/><use xlink:href="#8" y="10.855"/><use xlink:href="#9" y="13.026"/><use xlink:href="#10" y="15.197"/><use xlink:href="#11" y="17.368"/><use xlink:href="#12" y="19.539"/></svg><svg x="3150"><use xlink:href="#a"/><use xlink:href="#b" x="-.004" y="26.027"/><use xlink:href="#4"/><use xlink:href="#5" y="2.171"/><use xlink:href="#6" y="4.342"/><use xlink:href="#7" y="6.513"/><use xlink:href="#8" y="10.855"/><use xlink:href="#9" y="13.026"/><use xlink:href="#10" y="15.197"/><use xlink:href="#11" y="17.368"/><use xlink:href="#12" y="19.539"/><use xlink:href="#13" y="21.71"/><use xlink:href="#14" y="23.881"/></svg><svg x="3225"><use xlink:href="#a"/><use xlink:href="#b" x="-.004" y="30.369"/><use xlink:href="#4"/><use xlink:href="#5" y="2.171"/><use xlink:href="#6" y="4.342"/><use xlink:href="#7" y="6.513"/><use xlink:href="#8" y="10.855"/><use xlink:href="#9" y="13.026"/><use xlink:href="#10" y="15.197"/><use xlink:href="#11" y="17.368"/><use xlink:href="#12" y="19.539"/><use xlink:href="#13" y="21.71"/><use xlink:href="#14" y="23.881"/><use xlink:href="#15" y="26.052"/><use xlink:href="#16" y="28.223"/></svg><svg x="3300"><use xlink:href="#a"/><use xlink:href="#b" x="-.004" y="34.711"/><use xlink:href="#4"/><use xlink:href="#5" y="2.171"/><use xlink:href="#6" y="4.342"/><use xlink:href="#7" y="6.513"/><use xlink:href="#8" y="10.855"/><use xlink:href="#9" y="13.026"/><use xlink:href="#10" y="15.197"/><use xlink:href="#11" y="17.368"/><use xlink:href="#12" y="19.539"/><use xlink:href="#13" y="21.71"/><use xlink:href="#14" y="23.881"/><use xlink:href="#15" y="26.052"/><use xlink:href="#16" y="28.223"/><use xlink:href="#17" y="30.394"/><use xlink:href="#18" y="32.565"/></svg><svg x="3375"><use xlink:href="#a"/><use xlink:href="#b" x="19.996" y="34.711"/><use xlink:href="#4"/><use xlink:href="#5" y="2.171"/><use xlink:href="#6" y="4.342"/><use xlink:href="#7" y="6.513"/><use xlink:href="#8" y="10.855"/><use xlink:href="#9" y="13.026"/><use xlink:href="#10" y="15.197"/><use xlink:href="#11" y="17.368"/><use xlink:href="#12" y="19.539"/><use xlink:href="#13" y="21.71"/><use xlink:href="#14" y="23.881"/><use xlink:href="#15" y="26.052"/><use xlink:href="#16" y="28.223"/><use xlink:href="#17" y="30.394"/><use xlink:href="#18" y="32.565"/><use xlink:href="#1" y="34.736"/></svg><svg x="3450"><use xlink:href="#a"/><use xlink:href="#b" x="19.996" y="34.711"/><use xlink:href="#4"/><use xlink:href="#5" y="2.171"/><use xlink:href="#6" y="4.342"/><use xlink:href="#7" y="6.513"/><use xlink:href="#8" y="10.855"/><use xlink:href="#9" y="13.026"/><use xlink:href="#10" y="15.197"/><use xlink:href="#11" y="17.368"/><use xlink:href="#12" y="19.539"/><use xlink:href="#13" y="21.71"/><use xlink:href="#14" y="23.881"/><use xlink:href="#15" y="26.052"/><use xlink:href="#16" y="28.223"/><use xlink:href="#17" y="30.394"/><use xlink:href="#18" y="32.565"/><use xlink:href="#1" y="34.736"/></svg></svg></g></g></svg></svg>